<svg xmlns="http://www.w3.org/2000/svg" xmlns:xlink="http://www.w3.org/1999/xlink" width="500" zoomAndPan="magnify" viewBox="0 0 375 374.999991" height="500" preserveAspectRatio="xMidYMid meet" version="1.0"><defs><g/><clipPath id="ce31e7742f"><rect x="0" width="220" y="0" height="40"/></clipPath></defs><path fill="#248a00" d="M 181.855469 57.984375 C 200.714844 57.976562 216.015625 73.28125 216.011719 92.144531 C 216.015625 110.996094 200.714844 126.296875 182.011719 126.148438 C 163.15625 126.144531 147.851562 110.839844 147.851562 91.988281 C 147.695312 73.28125 163 57.976562 181.855469 57.984375 Z M 181.855469 57.984375 " fill-opacity="1" fill-rule="evenodd"/><path fill="#248a00" d="M 181.933594 158.953125 C 212.382812 158.804688 236.957031 183.378906 236.804688 213.824219 C 236.957031 244.277344 212.382812 268.851562 181.929688 268.699219 C 151.636719 268.699219 127.0625 244.125 127.058594 213.828125 C 127.0625 183.527344 151.636719 158.953125 181.933594 158.953125 Z M 181.933594 158.953125 " fill-opacity="1" fill-rule="evenodd"/><path fill="#248a00" d="M 180.621094 288.171875 C 232.25 288.792969 270.886719 247.675781 267.796875 196.359375 C 262.847656 112.890625 340.136719 102.074219 346.9375 163.28125 C 347.863281 171.9375 348.019531 180.132812 347.550781 188.324219 C 347.246094 189.867188 346.78125 191.566406 346.472656 193.113281 C 329.464844 253.707031 237.5 288.484375 180.304688 289.722656 Z M 180.621094 288.171875 " fill-opacity="1" fill-rule="evenodd"/><path fill="#7aacff" d="M 181.855469 335.78125 C 93.285156 335.628906 6.109375 260.816406 16.925781 163.4375 C 23.730469 102.222656 100.863281 112.890625 95.910156 196.359375 C 95.601562 204.398438 95.910156 212.125 97.457031 219.542969 C 101.480469 277.972656 138.421875 343.664062 206.277344 332.382812 L 207.359375 333.773438 C 199.015625 335.007812 190.511719 335.78125 181.855469 335.78125 Z M 181.855469 335.78125 " fill-opacity="1" fill-rule="evenodd"/><path fill="#4a8bf8" d="M 95.761719 202.386719 C 95.910156 250.152344 132.238281 288.332031 181.855469 288.175781 C 184.328125 288.175781 186.957031 288.023438 189.273438 287.867188 C 254.808594 283.539062 350.796875 237.9375 347.554688 170.703125 C 352.964844 258.339844 279.078125 326.046875 199.167969 334.855469 C 132.851562 340.882812 93.289062 269.78125 95.761719 202.386719 Z M 95.761719 202.386719 " fill-opacity="1" fill-rule="evenodd"/><path fill="#7aacff" d="M 112.921875 16.863281 C 134.710938 6.816406 158.203125 1.871094 182.007812 1.867188 C 227.453125 1.875 272.738281 20.578125 304.890625 57.980469 C 336.421875 95.386719 292.0625 132.949219 252.339844 83.023438 C 248.320312 77.765625 243.066406 72.203125 236.726562 67.101562 C 202.878906 28.613281 167.476562 -3.074219 113.378906 18.257812 Z M 112.921875 16.863281 " fill-opacity="1" fill-rule="evenodd"/><path fill="#248a00" d="M 182.007812 46.390625 C 149.546875 45.769531 124.664062 66.324219 111.371094 83.019531 C 71.796875 133.105469 27.285156 95.386719 58.816406 57.976562 C 73.5 41.136719 120.339844 38.191406 141.511719 38.664062 C 166.085938 39.433594 194.6875 43.292969 217.25 52.875 L 217.097656 54.265625 C 206.894531 49.328125 194.988281 46.082031 182.007812 46.390625 Z M 182.007812 46.390625 " fill-opacity="1" fill-rule="evenodd"/><path fill="#4a8bf8" d="M 247.238281 76.992188 C 239.355469 68.492188 228.691406 59.679688 215.863281 53.652344 C 210.296875 51.183594 204.578125 49.175781 198.398438 47.929688 C 152.484375 35.722656 73.960938 34.792969 53.097656 66.171875 C 54.644531 63.390625 56.496094 60.609375 58.816406 57.976562 C 74.738281 39.582031 93.59375 25.675781 114.308594 16.402344 C 171.34375 -6.011719 208.75 32.320312 247.238281 76.992188 Z M 247.238281 76.992188 " fill-opacity="1" fill-rule="evenodd"/><g transform="matrix(1, 0, 0, 1, 78, 335)"><g clip-path="url(#ce31e7742f)"><g fill="#248a00" fill-opacity="1"><g transform="translate(1.157699, 30.079055)"><g><path d="M 2.890625 -22.53125 L 11.109375 -22.53125 C 12.847656 -22.53125 14.441406 -22.234375 15.890625 -21.640625 C 17.335938 -21.054688 18.59375 -20.257812 19.65625 -19.25 C 20.71875 -18.238281 21.539062 -17.046875 22.125 -15.671875 C 22.71875 -14.296875 23.015625 -12.828125 23.015625 -11.265625 C 23.015625 -9.703125 22.71875 -8.234375 22.125 -6.859375 C 21.539062 -5.484375 20.71875 -4.289062 19.65625 -3.28125 C 18.59375 -2.269531 17.335938 -1.46875 15.890625 -0.875 C 14.441406 -0.289062 12.847656 0 11.109375 0 L 2.890625 0 Z M 11.109375 -4.5 C 12.117188 -4.5 13.046875 -4.671875 13.890625 -5.015625 C 14.734375 -5.359375 15.460938 -5.832031 16.078125 -6.4375 C 16.691406 -7.039062 17.171875 -7.753906 17.515625 -8.578125 C 17.859375 -9.398438 18.03125 -10.296875 18.03125 -11.265625 C 18.03125 -12.234375 17.859375 -13.128906 17.515625 -13.953125 C 17.171875 -14.773438 16.691406 -15.488281 16.078125 -16.09375 C 15.460938 -16.695312 14.734375 -17.171875 13.890625 -17.515625 C 13.046875 -17.859375 12.117188 -18.03125 11.109375 -18.03125 L 7.71875 -18.03125 L 7.71875 -4.5 Z M 11.109375 -4.5 "/></g></g></g><g fill="#248a00" fill-opacity="1"><g transform="translate(25.868379, 30.079055)"><g><path d="M 2.09375 -15.765625 L 6.4375 -15.765625 L 6.4375 0 L 2.09375 0 Z M 4.25 -17.859375 C 3.5625 -17.859375 2.972656 -18.097656 2.484375 -18.578125 C 2.003906 -19.066406 1.765625 -19.632812 1.765625 -20.28125 C 1.765625 -20.925781 2.007812 -21.488281 2.5 -21.96875 C 3 -22.445312 3.59375 -22.6875 4.28125 -22.6875 C 4.96875 -22.6875 5.550781 -22.445312 6.03125 -21.96875 C 6.519531 -21.488281 6.765625 -20.925781 6.765625 -20.28125 C 6.765625 -19.632812 6.515625 -19.066406 6.015625 -18.578125 C 5.523438 -18.097656 4.9375 -17.859375 4.25 -17.859375 Z M 4.25 -17.859375 "/></g></g></g><g fill="#248a00" fill-opacity="1"><g transform="translate(34.652326, 30.079055)"><g><path d="M 8.6875 6.765625 C 7.507812 6.765625 6.488281 6.597656 5.625 6.265625 C 4.769531 5.929688 4.050781 5.5625 3.46875 5.15625 C 2.789062 4.675781 2.222656 4.140625 1.765625 3.546875 L 4.5 0.796875 C 4.820312 1.171875 5.195312 1.492188 5.625 1.765625 C 6 2.003906 6.441406 2.222656 6.953125 2.421875 C 7.460938 2.628906 8.039062 2.734375 8.6875 2.734375 C 9.289062 2.734375 9.847656 2.625 10.359375 2.40625 C 10.878906 2.195312 11.320312 1.90625 11.6875 1.53125 C 12.050781 1.15625 12.335938 0.695312 12.546875 0.15625 C 12.765625 -0.375 12.875 -0.960938 12.875 -1.609375 L 12.875 -2.890625 L 12.71875 -2.890625 C 12.394531 -2.421875 12.007812 -1.992188 11.5625 -1.609375 C 11.164062 -1.285156 10.660156 -0.988281 10.046875 -0.71875 C 9.441406 -0.457031 8.722656 -0.328125 7.890625 -0.328125 C 7.003906 -0.328125 6.15625 -0.519531 5.34375 -0.90625 C 4.53125 -1.289062 3.8125 -1.828125 3.1875 -2.515625 C 2.5625 -3.203125 2.0625 -4.03125 1.6875 -5 C 1.3125 -5.976562 1.125 -7.046875 1.125 -8.203125 C 1.125 -9.367188 1.3125 -10.4375 1.6875 -11.40625 C 2.0625 -12.382812 2.5625 -13.21875 3.1875 -13.90625 C 3.8125 -14.59375 4.53125 -15.128906 5.34375 -15.515625 C 6.15625 -15.898438 7.003906 -16.09375 7.890625 -16.09375 C 8.722656 -16.09375 9.441406 -15.957031 10.046875 -15.6875 C 10.660156 -15.414062 11.164062 -15.125 11.5625 -14.8125 C 12.007812 -14.425781 12.394531 -13.992188 12.71875 -13.515625 L 12.875 -13.515625 L 12.875 -15.765625 L 17.21875 -15.765625 L 17.21875 -1.609375 C 17.21875 -0.410156 17.007812 0.703125 16.59375 1.734375 C 16.175781 2.765625 15.582031 3.648438 14.8125 4.390625 C 14.050781 5.128906 13.148438 5.707031 12.109375 6.125 C 11.078125 6.550781 9.9375 6.765625 8.6875 6.765625 Z M 9.171875 -4.34375 C 10.222656 -4.34375 11.101562 -4.703125 11.8125 -5.421875 C 12.519531 -6.140625 12.875 -7.066406 12.875 -8.203125 C 12.875 -9.335938 12.519531 -10.265625 11.8125 -10.984375 C 11.101562 -11.703125 10.222656 -12.0625 9.171875 -12.0625 C 8.117188 -12.0625 7.238281 -11.703125 6.53125 -10.984375 C 5.820312 -10.265625 5.46875 -9.335938 5.46875 -8.203125 C 5.46875 -7.066406 5.820312 -6.140625 6.53125 -5.421875 C 7.238281 -4.703125 8.117188 -4.34375 9.171875 -4.34375 Z M 9.171875 -4.34375 "/></g></g></g><g fill="#248a00" fill-opacity="1"><g transform="translate(54.214972, 30.079055)"><g><path d="M 2.09375 -15.765625 L 6.4375 -15.765625 L 6.4375 0 L 2.09375 0 Z M 4.25 -17.859375 C 3.5625 -17.859375 2.972656 -18.097656 2.484375 -18.578125 C 2.003906 -19.066406 1.765625 -19.632812 1.765625 -20.28125 C 1.765625 -20.925781 2.007812 -21.488281 2.5 -21.96875 C 3 -22.445312 3.59375 -22.6875 4.28125 -22.6875 C 4.96875 -22.6875 5.550781 -22.445312 6.03125 -21.96875 C 6.519531 -21.488281 6.765625 -20.925781 6.765625 -20.28125 C 6.765625 -19.632812 6.515625 -19.066406 6.015625 -18.578125 C 5.523438 -18.097656 4.9375 -17.859375 4.25 -17.859375 Z M 4.25 -17.859375 "/></g></g></g><g fill="#248a00" fill-opacity="1"><g transform="translate(62.998919, 30.079055)"><g><path d="M 8.6875 0.328125 C 7.082031 0.328125 5.796875 -0.171875 4.828125 -1.171875 C 3.859375 -2.171875 3.375 -3.601562 3.375 -5.46875 L 3.375 -11.421875 L 0.640625 -11.421875 L 0.640625 -15.453125 L 2.09375 -15.453125 C 3.269531 -15.453125 3.859375 -16.09375 3.859375 -17.375 L 3.859375 -20.28125 L 7.71875 -20.28125 L 7.71875 -15.453125 L 11.265625 -15.453125 L 11.265625 -11.421875 L 7.71875 -11.421875 L 7.71875 -6.109375 C 7.71875 -5.378906 7.90625 -4.820312 8.28125 -4.4375 C 8.65625 -4.050781 9.164062 -3.859375 9.8125 -3.859375 C 10.289062 -3.859375 10.710938 -3.910156 11.078125 -4.015625 C 11.265625 -4.066406 11.4375 -4.125 11.59375 -4.1875 L 11.59375 -0.15625 C 11.332031 -0.0703125 11.050781 0.0078125 10.75 0.09375 C 10.488281 0.15625 10.179688 0.207031 9.828125 0.25 C 9.472656 0.300781 9.09375 0.328125 8.6875 0.328125 Z M 8.6875 0.328125 "/></g></g></g><g fill="#248a00" fill-opacity="1"><g transform="translate(75.804633, 30.079055)"><g><path d="M 6.109375 0.328125 C 5.378906 0.328125 4.71875 0.210938 4.125 -0.015625 C 3.539062 -0.242188 3.039062 -0.5625 2.625 -0.96875 C 2.207031 -1.375 1.878906 -1.847656 1.640625 -2.390625 C 1.398438 -2.941406 1.28125 -3.539062 1.28125 -4.1875 C 1.28125 -5.46875 1.691406 -6.5625 2.515625 -7.46875 C 3.347656 -8.382812 4.492188 -8.972656 5.953125 -9.234375 L 10.9375 -10.140625 C 10.851562 -10.691406 10.582031 -11.175781 10.125 -11.59375 C 9.664062 -12.019531 9.023438 -12.234375 8.203125 -12.234375 C 7.648438 -12.234375 7.148438 -12.140625 6.703125 -11.953125 C 6.265625 -11.773438 5.894531 -11.566406 5.59375 -11.328125 C 5.226562 -11.066406 4.921875 -10.773438 4.671875 -10.453125 L 2.09375 -13.03125 C 2.539062 -13.59375 3.085938 -14.097656 3.734375 -14.546875 C 4.296875 -14.929688 4.972656 -15.285156 5.765625 -15.609375 C 6.554688 -15.929688 7.476562 -16.09375 8.53125 -16.09375 C 9.539062 -16.09375 10.457031 -15.929688 11.28125 -15.609375 C 12.101562 -15.285156 12.816406 -14.835938 13.421875 -14.265625 C 14.023438 -13.703125 14.484375 -13.039062 14.796875 -12.28125 C 15.117188 -11.519531 15.28125 -10.695312 15.28125 -9.8125 L 15.28125 0 L 10.9375 0 L 10.9375 -1.9375 L 10.78125 -1.9375 C 10.4375 -1.5 10.039062 -1.117188 9.59375 -0.796875 C 9.207031 -0.503906 8.71875 -0.242188 8.125 -0.015625 C 7.53125 0.210938 6.859375 0.328125 6.109375 0.328125 Z M 7.5625 -3.21875 C 8.53125 -3.21875 9.332031 -3.546875 9.96875 -4.203125 C 10.613281 -4.859375 10.9375 -5.710938 10.9375 -6.765625 L 10.9375 -7.078125 L 7.40625 -6.4375 C 6.84375 -6.332031 6.40625 -6.140625 6.09375 -5.859375 C 5.78125 -5.578125 5.625 -5.234375 5.625 -4.828125 C 5.625 -4.335938 5.785156 -3.945312 6.109375 -3.65625 C 6.429688 -3.363281 6.914062 -3.21875 7.5625 -3.21875 Z M 7.5625 -3.21875 "/></g></g></g><g fill="#248a00" fill-opacity="1"><g transform="translate(93.436763, 30.079055)"><g><path d="M 2.25 -22.53125 L 6.59375 -22.53125 L 6.59375 0 L 2.25 0 Z M 2.25 -22.53125 "/></g></g></g><g fill="#248a00" fill-opacity="1"><g transform="translate(102.542458, 30.079055)"><g/></g></g><g fill="#248a00" fill-opacity="1"><g transform="translate(109.556771, 30.079055)"><g><path d="M 13.671875 0.484375 C 11.941406 0.484375 10.328125 0.171875 8.828125 -0.453125 C 7.335938 -1.078125 6.046875 -1.921875 4.953125 -2.984375 C 3.859375 -4.046875 3 -5.285156 2.375 -6.703125 C 1.757812 -8.128906 1.453125 -9.648438 1.453125 -11.265625 C 1.453125 -12.867188 1.757812 -14.382812 2.375 -15.8125 C 3 -17.238281 3.859375 -18.484375 4.953125 -19.546875 C 6.046875 -20.609375 7.335938 -21.453125 8.828125 -22.078125 C 10.328125 -22.703125 11.941406 -23.015625 13.671875 -23.015625 C 15.242188 -23.015625 16.625 -22.773438 17.8125 -22.296875 C 19.007812 -21.828125 20.003906 -21.316406 20.796875 -20.765625 C 21.710938 -20.097656 22.503906 -19.34375 23.171875 -18.5 L 19.953125 -15.28125 C 19.484375 -15.882812 18.9375 -16.421875 18.3125 -16.890625 C 17.78125 -17.304688 17.125 -17.675781 16.34375 -18 C 15.570312 -18.332031 14.679688 -18.5 13.671875 -18.5 C 12.671875 -18.5 11.726562 -18.3125 10.84375 -17.9375 C 9.96875 -17.5625 9.203125 -17.046875 8.546875 -16.390625 C 7.890625 -15.742188 7.375 -14.976562 7 -14.09375 C 6.625 -13.21875 6.4375 -12.273438 6.4375 -11.265625 C 6.4375 -10.253906 6.625 -9.304688 7 -8.421875 C 7.375 -7.546875 7.890625 -6.78125 8.546875 -6.125 C 9.203125 -5.476562 9.96875 -4.960938 10.84375 -4.578125 C 11.726562 -4.203125 12.671875 -4.015625 13.671875 -4.015625 C 14.722656 -4.015625 15.644531 -4.179688 16.4375 -4.515625 C 17.238281 -4.847656 17.914062 -5.21875 18.46875 -5.625 C 19.113281 -6.101562 19.660156 -6.640625 20.109375 -7.234375 L 23.328125 -4.015625 C 22.671875 -3.179688 21.867188 -2.429688 20.921875 -1.765625 C 20.109375 -1.210938 19.097656 -0.695312 17.890625 -0.21875 C 16.691406 0.25 15.285156 0.484375 13.671875 0.484375 Z M 13.671875 0.484375 "/></g></g></g><g fill="#248a00" fill-opacity="1"><g transform="translate(133.46293, 30.079055)"><g><path d="M 9.5 0.328125 C 8.332031 0.328125 7.238281 0.113281 6.21875 -0.3125 C 5.207031 -0.75 4.316406 -1.34375 3.546875 -2.09375 C 2.785156 -2.84375 2.191406 -3.710938 1.765625 -4.703125 C 1.335938 -5.691406 1.125 -6.753906 1.125 -7.890625 C 1.125 -9.003906 1.335938 -10.054688 1.765625 -11.046875 C 2.191406 -12.046875 2.785156 -12.921875 3.546875 -13.671875 C 4.316406 -14.429688 5.207031 -15.023438 6.21875 -15.453125 C 7.238281 -15.878906 8.332031 -16.09375 9.5 -16.09375 C 10.65625 -16.09375 11.742188 -15.878906 12.765625 -15.453125 C 13.785156 -15.023438 14.675781 -14.429688 15.4375 -13.671875 C 16.195312 -12.921875 16.789062 -12.046875 17.21875 -11.046875 C 17.644531 -10.054688 17.859375 -9.003906 17.859375 -7.890625 C 17.859375 -6.753906 17.644531 -5.691406 17.21875 -4.703125 C 16.789062 -3.710938 16.195312 -2.84375 15.4375 -2.09375 C 14.675781 -1.34375 13.785156 -0.75 12.765625 -0.3125 C 11.742188 0.113281 10.65625 0.328125 9.5 0.328125 Z M 9.5 -3.703125 C 10.050781 -3.703125 10.570312 -3.804688 11.0625 -4.015625 C 11.5625 -4.234375 11.992188 -4.523438 12.359375 -4.890625 C 12.722656 -5.253906 13.003906 -5.691406 13.203125 -6.203125 C 13.410156 -6.722656 13.515625 -7.285156 13.515625 -7.890625 C 13.515625 -8.484375 13.410156 -9.035156 13.203125 -9.546875 C 13.003906 -10.066406 12.722656 -10.507812 12.359375 -10.875 C 11.992188 -11.238281 11.5625 -11.523438 11.0625 -11.734375 C 10.570312 -11.953125 10.050781 -12.0625 9.5 -12.0625 C 8.9375 -12.0625 8.40625 -11.953125 7.90625 -11.734375 C 7.414062 -11.523438 6.988281 -11.238281 6.625 -10.875 C 6.257812 -10.507812 5.972656 -10.066406 5.765625 -9.546875 C 5.566406 -9.035156 5.46875 -8.484375 5.46875 -7.890625 C 5.46875 -7.285156 5.566406 -6.722656 5.765625 -6.203125 C 5.972656 -5.691406 6.257812 -5.253906 6.625 -4.890625 C 6.988281 -4.523438 7.414062 -4.234375 7.90625 -4.015625 C 8.40625 -3.804688 8.9375 -3.703125 9.5 -3.703125 Z M 9.5 -3.703125 "/></g></g></g><g fill="#248a00" fill-opacity="1"><g transform="translate(152.703812, 30.079055)"><g><path d="M 7.890625 0.328125 C 7.066406 0.328125 6.304688 0.171875 5.609375 -0.140625 C 4.921875 -0.453125 4.3125 -0.890625 3.78125 -1.453125 C 3.257812 -2.023438 2.847656 -2.71875 2.546875 -3.53125 C 2.242188 -4.351562 2.09375 -5.269531 2.09375 -6.28125 L 2.09375 -15.765625 L 6.4375 -15.765625 L 6.4375 -6.921875 C 6.4375 -5.953125 6.691406 -5.195312 7.203125 -4.65625 C 7.722656 -4.125 8.429688 -3.859375 9.328125 -3.859375 C 10.296875 -3.859375 11.101562 -4.1875 11.75 -4.84375 C 12.394531 -5.5 12.71875 -6.351562 12.71875 -7.40625 L 12.71875 -15.765625 L 17.0625 -15.765625 L 17.0625 0 L 12.71875 0 L 12.71875 -2.25 L 12.546875 -2.25 C 12.203125 -1.78125 11.804688 -1.351562 11.359375 -0.96875 C 10.972656 -0.644531 10.484375 -0.347656 9.890625 -0.078125 C 9.304688 0.191406 8.640625 0.328125 7.890625 0.328125 Z M 7.890625 0.328125 "/></g></g></g><g fill="#248a00" fill-opacity="1"><g transform="translate(172.105576, 30.079055)"><g><path d="M 2.09375 -15.765625 L 6.4375 -15.765625 L 6.4375 -13.515625 L 6.59375 -13.515625 C 6.9375 -13.992188 7.335938 -14.425781 7.796875 -14.8125 C 8.179688 -15.125 8.660156 -15.414062 9.234375 -15.6875 C 9.816406 -15.957031 10.492188 -16.09375 11.265625 -16.09375 L 11.59375 -16.09375 L 11.59375 -11.421875 C 11.476562 -11.441406 11.359375 -11.460938 11.234375 -11.484375 C 11.109375 -11.503906 10.953125 -11.523438 10.765625 -11.546875 C 10.585938 -11.578125 10.378906 -11.59375 10.140625 -11.59375 C 9.085938 -11.59375 8.207031 -11.210938 7.5 -10.453125 C 6.789062 -9.703125 6.4375 -8.6875 6.4375 -7.40625 L 6.4375 0 L 2.09375 0 Z M 2.09375 -15.765625 "/></g></g></g><g fill="#248a00" fill-opacity="1"><g transform="translate(184.589671, 30.079055)"><g><path d="M 7.234375 0.328125 C 6.140625 0.328125 5.175781 0.175781 4.34375 -0.125 C 3.507812 -0.425781 2.800781 -0.757812 2.21875 -1.125 C 1.53125 -1.53125 0.953125 -2.015625 0.484375 -2.578125 L 3.0625 -5.3125 C 3.382812 -4.96875 3.757812 -4.664062 4.1875 -4.40625 C 4.550781 -4.175781 4.988281 -3.972656 5.5 -3.796875 C 6.019531 -3.628906 6.597656 -3.546875 7.234375 -3.546875 C 7.972656 -3.546875 8.476562 -3.648438 8.75 -3.859375 C 9.03125 -4.078125 9.171875 -4.347656 9.171875 -4.671875 C 9.171875 -4.972656 8.972656 -5.222656 8.578125 -5.421875 C 8.179688 -5.628906 7.679688 -5.828125 7.078125 -6.015625 C 6.484375 -6.210938 5.84375 -6.4375 5.15625 -6.6875 C 4.46875 -6.945312 3.820312 -7.269531 3.21875 -7.65625 C 2.613281 -8.039062 2.113281 -8.523438 1.71875 -9.109375 C 1.320312 -9.691406 1.125 -10.410156 1.125 -11.265625 C 1.125 -11.910156 1.265625 -12.519531 1.546875 -13.09375 C 1.828125 -13.675781 2.226562 -14.191406 2.75 -14.640625 C 3.28125 -15.097656 3.9375 -15.453125 4.71875 -15.703125 C 5.5 -15.960938 6.394531 -16.09375 7.40625 -16.09375 C 8.414062 -16.09375 9.300781 -15.960938 10.0625 -15.703125 C 10.820312 -15.453125 11.457031 -15.175781 11.96875 -14.875 C 12.570312 -14.507812 13.085938 -14.109375 13.515625 -13.671875 L 10.9375 -10.9375 C 10.6875 -11.175781 10.378906 -11.394531 10.015625 -11.59375 C 9.710938 -11.757812 9.335938 -11.90625 8.890625 -12.03125 C 8.453125 -12.164062 7.957031 -12.234375 7.40625 -12.234375 C 6.84375 -12.234375 6.429688 -12.128906 6.171875 -11.921875 C 5.921875 -11.722656 5.796875 -11.503906 5.796875 -11.265625 C 5.796875 -10.960938 5.992188 -10.707031 6.390625 -10.5 C 6.785156 -10.300781 7.28125 -10.101562 7.875 -9.90625 C 8.476562 -9.71875 9.125 -9.492188 9.8125 -9.234375 C 10.5 -8.972656 11.144531 -8.648438 11.75 -8.265625 C 12.351562 -7.878906 12.851562 -7.394531 13.25 -6.8125 C 13.644531 -6.238281 13.84375 -5.523438 13.84375 -4.671875 C 13.84375 -3.984375 13.703125 -3.335938 13.421875 -2.734375 C 13.140625 -2.128906 12.71875 -1.601562 12.15625 -1.15625 C 11.601562 -0.707031 10.921875 -0.347656 10.109375 -0.078125 C 9.296875 0.191406 8.335938 0.328125 7.234375 0.328125 Z M 7.234375 0.328125 "/></g></g></g><g fill="#248a00" fill-opacity="1"><g transform="translate(199.486911, 30.079055)"><g><path d="M 9.5 0.328125 C 8.332031 0.328125 7.238281 0.113281 6.21875 -0.3125 C 5.207031 -0.75 4.316406 -1.34375 3.546875 -2.09375 C 2.785156 -2.84375 2.191406 -3.710938 1.765625 -4.703125 C 1.335938 -5.691406 1.125 -6.753906 1.125 -7.890625 C 1.125 -9.003906 1.335938 -10.054688 1.765625 -11.046875 C 2.191406 -12.046875 2.78125 -12.921875 3.53125 -13.671875 C 4.289062 -14.429688 5.160156 -15.023438 6.140625 -15.453125 C 7.128906 -15.878906 8.191406 -16.09375 9.328125 -16.09375 C 10.421875 -16.09375 11.445312 -15.882812 12.40625 -15.46875 C 13.363281 -15.050781 14.195312 -14.488281 14.90625 -13.78125 C 15.613281 -13.070312 16.175781 -12.238281 16.59375 -11.28125 C 17.007812 -10.320312 17.21875 -9.296875 17.21875 -8.203125 C 17.21875 -7.898438 17.207031 -7.632812 17.1875 -7.40625 C 17.164062 -7.1875 17.144531 -6.992188 17.125 -6.828125 C 17.101562 -6.609375 17.082031 -6.425781 17.0625 -6.28125 L 5.625 -6.28125 C 5.863281 -5.550781 6.320312 -4.910156 7 -4.359375 C 7.675781 -3.816406 8.613281 -3.546875 9.8125 -3.546875 C 10.5 -3.546875 11.097656 -3.628906 11.609375 -3.796875 C 12.128906 -3.972656 12.570312 -4.175781 12.9375 -4.40625 C 13.34375 -4.664062 13.695312 -4.96875 14 -5.3125 L 16.25 -2.25 C 15.78125 -1.78125 15.203125 -1.351562 14.515625 -0.96875 C 13.929688 -0.644531 13.222656 -0.347656 12.390625 -0.078125 C 11.554688 0.191406 10.59375 0.328125 9.5 0.328125 Z M 12.71875 -9.5 C 12.476562 -10.226562 12.050781 -10.863281 11.4375 -11.40625 C 10.832031 -11.957031 10.078125 -12.234375 9.171875 -12.234375 C 8.273438 -12.234375 7.519531 -11.957031 6.90625 -11.40625 C 6.289062 -10.863281 5.863281 -10.226562 5.625 -9.5 Z M 12.71875 -9.5 "/></g></g></g></g></g></svg>